<?xml version="1.0" encoding="UTF-8" standalone="no"?>
<!-- Created with Inkscape (http://www.inkscape.org/) -->

<svg
   width="137.28558mm"
   height="98.019859mm"
   viewBox="0 0 137.28558 98.01986"
   version="1.1"
   id="svg5"
   xmlns="http://www.w3.org/2000/svg"
   xmlns:svg="http://www.w3.org/2000/svg">
   <defs
      id="defs2" />
   <g
      id="layer1"
      transform="translate(-30.011751,-54.799923)">
      <path
         id="path970"
         style="fill:#2ca089;stroke:none;strokeWidth:0.70662"
         d="m 109.36914,-131.49023 c 0,47.070113 0.67773,94.060695 0.67774,141.130855 v 39.693359 c 0,2.166388 0.0935,4.476335 0.15624,6.806641 -0.14731,3.900624 -0.31914,7.420305 -0.55859,9.712891 -0.22881,1.143156 -0.50966,2.264691 -0.92578,3.326172 -2.53581,6.467186 -7.74335,9.524437 -12.996094,9.550781 -0.394359,-0.01134 -0.748722,0.0069 -1.167968,-0.01953 -5.488959,-0.447837 -10.813912,-4.218471 -12.962891,-11 C 79.401118,60.798446 80.837891,51.435677 80.837891,44.189453 V 14.433594 L 81.484375,-2.1328125 H 80.837891 V -3.5898438 H -7.4667969 c 0,55.6093178 -7.0710581,113.2718138 35.3222659,154.2343738 35.28724,34.09712 93.034651,35.11825 133.138671,10.30859 14.34572,-8.87507 31.87301,-23.76105 36.68164,-41.78906 h 0.54883 l 0.0957,57.77149 0.0332,20.13476 v 41.90821 h 83.55273 v -1.64063 h 0.4668 l -0.4668,-43.58008 V 86.822266 c 0,-3.644977 -0.34771,-8.288198 -0.65234,-13.310547 0.12888,-12.695471 0.37895,-20.904154 0.69726,-25.544922 1.1664,-5.727836 3.39456,-10.550455 7.42774,-13.355469 9.06497,-6.304592 21.84457,0.808832 22.38867,12.517578 1.92442,41.419767 0.0273,83.480444 0.0273,124.958984 h 83.55078 c 0,-33.899 0.57472,-67.75075 0.65235,-101.667968 0.18935,-10.88674 0.45098,-18.10085 0.87304,-22.796875 1.38244,-8.381514 5.04015,-15.662742 14.77735,-15.675781 7.89811,-0.01134 11.63448,4.683117 13.40625,10.875 0.85428,7.080226 1.22971,22.397846 1.53906,49.46289 v 79.802734 h 83.55078 V 32.427734 c 0,-21.038814 3.99657,-47.042536 -5.64648,-66.15625 -19.26981,-38.191369 -71.08712,-53.109482 -108.47266,-46.609375 -14.52367,2.52567 -32.50369,8.746159 -41.43555,22.353516 h -0.67968 c -8.16968,-12.541493 -24.5336,-19.328291 -38.03907,-21.867187 -30.60291,-5.753273 -64.98623,1.749917 -90.34375,21.447265 -13.00006,10.098217 -25.7674,25.567696 -26.49218,43.789063 h -0.67969 V -131.49023 Z"
         transform="matrix(0.26458333,0,0,0.26458333,32.104408,89.590046)" />
   </g>
</svg>