<?xml version="1.0" encoding="UTF-8" standalone="no"?>
<!-- Created with Inkscape (http://www.inkscape.org/) -->

<svg
   width="59.680294mm"
   height="59.399574mm"
   viewBox="0 0 59.680294 59.399574"
   version="1.1"
   id="svg5"
   xmlns="http://www.w3.org/2000/svg"
   xmlns:svg="http://www.w3.org/2000/svg">
  <defs
     id="defs2" />
  <g
     id="layer1"
     transform="translate(-37.096879,-226.02285)">
    <path
       style="fill:#b5a887;fill-opacity:1;stroke:none;stroke-width:0.354435"
       d="m 23.821962,173.58456 c -3.289459,-8.30497 -4.420252,-11.70517 -5.92313,-17.81036 -5.83545,-23.70556 -4.050556,-47.96364 5.181709,-70.423413 14.56977,-35.444577 45.680132,-61.57432 81.992409,-68.865819 8.0115,-1.60871 13.6449,-2.050534 23.58697,-1.849913 7.4091,0.149507 10.02826,0.345677 14.53183,1.088401 9.04538,1.491754 19.13949,4.231272 19.13949,5.194412 0,0.150339 -6.89014,4.596579 -15.31142,9.880534 l -15.31143,9.607192 h -6.82261 c -7.88271,0 -13.24342,0.59163 -19.58775,2.161784 C 89.792075,46.404937 76.48848,54.20953 64.49134,66.506739 57.13347,74.048641 52.24741,80.93005 47.539066,90.381911 40.81295,103.88438 37.916408,115.93765 37.931468,130.36164 c 0.01272,12.17936 1.794207,20.84821 6.622227,32.22418 1.272687,2.99876 2.255597,5.50875 2.184244,5.57777 -0.07135,0.069 -3.149415,1.82791 -6.840139,3.90866 -3.690724,2.08074 -8.21309,4.72762 -10.049703,5.88196 -1.836613,1.15433 -3.367375,2.09879 -3.401695,2.09879 -0.03432,0 -1.215317,-2.9108 -2.62444,-6.46844 z"
       id="path20921"
       transform="matrix(0.26458333,0,0,0.26458333,33.250475,222.16261)" />
    <path
       style="fill:#b5a887;fill-opacity:1;stroke:none;stroke-width:0.354435"
       d="m 73.101065,140.32949 0.08977,-52.893013 7.088701,-4.064596 c 10.33822,-5.927842 19.333691,-10.813862 19.536189,-10.611364 0.421415,0.421419 0.820845,32.714253 0.831875,67.255193 l 0.0119,37.40678 -11.41624,6.54317 c -6.278932,3.59874 -12.499788,7.15375 -13.824126,7.90001 l -2.407886,1.35685 z"
       id="path20960"
       transform="matrix(0.26458333,0,0,0.26458333,33.250475,222.16261)" />
    <path
       style="fill:#b5a887;fill-opacity:1;stroke:none;stroke-width:0.354435"
       d="m 79.039012,228.03392 c -17.748356,-2.18124 -32.386858,-11.24947 -41.122218,-25.4743 -0.837975,-1.36457 -1.981587,-3.48557 -2.54136,-4.71333 -1.485772,-3.25876 -3.518719,-9.09298 -3.210252,-9.21289 0.146093,-0.0568 5.528984,-3.27247 11.961979,-7.14596 6.432996,-3.87349 11.749847,-6.99003 11.815224,-6.92565 0.06538,0.0644 0.588391,2.08384 1.162253,4.4877 2.246149,9.4089 6.71692,15.54491 14.146504,19.41566 6.740653,3.51183 14.600717,4.09907 21.721122,1.62284 6.650442,-2.31279 11.294576,-6.81943 15.532776,-15.0729 l 1.54704,-3.0127 0.17721,-58.65414 0.17722,-58.654145 8.86088,-5.207532 c 9.49975,-5.582996 17.12101,-9.698463 17.41527,-9.404206 0.7418,0.741801 0.99556,16.227926 0.99138,60.501363 -0.005,58.03597 -0.27215,65.66662 -2.65067,75.8491 -5.41473,23.18058 -19.09604,37.066 -40.38445,40.98697 -2.898651,0.53388 -13.012965,0.93205 -15.599908,0.61412 z"
       id="path20999"
       transform="matrix(0.26458333,0,0,0.26458333,33.250475,222.16261)" />
    <path
       style="fill:#b5a887;fill-opacity:1;stroke:none;stroke-width:0.354435"
       d="m 147.98475,135.66001 c -0.13737,-5.3121 -0.11564,-28.70985 0.0483,-51.995015 l 0.29803,-42.336657 8.15201,-4.899444 c 11.58647,-6.963596 17.54611,-10.317209 17.83028,-10.033467 0.61218,0.611259 0.84669,28.024809 0.5574,65.158445 l -0.3115,39.983578 -8.152,4.81176 c -9.66224,5.70319 -15.93757,8.96915 -17.23363,8.96915 h -0.93913 z"
       id="path21038"
       transform="matrix(0.26458333,0,0,0.26458333,33.250475,222.16261)" />
    <path
       style="fill:#b5a887;fill-opacity:1;stroke:none;stroke-width:0.354435"
       d="m 116.74157,238.89108 c -4.08566,-0.34291 -9.89626,-1.16398 -14.6386,-2.06853 l -3.237928,-0.6176 3.216448,-0.78444 c 9.76924,-2.38255 17.01421,-6.34676 24.33958,-13.3178 l 3.21749,-3.06186 h 1.9565 c 5.08614,0 15.1792,-2.49747 23.64748,-5.85143 18.61083,-7.37104 33.79592,-17.69707 41.97413,-28.5429 9.24811,-12.2647 15.23888,-26.92353 17.81083,-43.58138 0.84999,-5.50512 0.85154,-19.36478 0.003,-24.91862 -2.06351,-13.50273 -6.29736,-24.995304 -13.09441,-35.544127 -2.59674,-4.029983 -6.2468,-8.507727 -11.73369,-14.394362 l -5.18715,-5.565063 V 45.372503 c 0,-14.876118 0.0173,-15.261188 0.67134,-14.911173 1.15058,0.615773 11.80098,8.526039 14.03771,10.42609 9.13839,7.762864 15.72407,15.168284 22.12653,24.880711 9.11869,13.832905 15.04638,30.112184 17.43218,47.874189 0.91452,6.80855 1.09976,20.58187 0.36404,27.06839 -4.15438,36.62721 -23.03861,66.86286 -52.21948,83.60887 -6.30524,3.61838 -14.29535,6.96281 -21.61973,9.04939 -13.29417,3.78727 -37.40512,6.50081 -49.06611,5.52211 z"
       id="path21077"
       transform="matrix(0.26458333,0,0,0.26458333,33.250475,222.16261)" />
    <path
       style="fill:#b5a887;fill-opacity:1;stroke:none;stroke-width:0.354435"
       d="m 114.3053,238.52261 c -4.04795,-0.53705 -14.385415,-2.20258 -14.27732,-2.30031 0.055,-0.0497 1.69487,-0.5222 3.64427,-1.05002 9.10133,-2.46432 15.1196,-5.87967 22.91545,-13.00444 l 3.42152,-3.12699 2.24944,-3.6e-4 c 4.59995,-0.001 13.22882,-2.04425 21.15274,-5.00884 19.42452,-7.26732 35.5636,-18.11462 44.28815,-29.76668 7.96091,-10.63219 13.67686,-23.76621 16.55652,-38.04335 2.18108,-10.8136 2.1695,-24.35154 -0.0302,-35.28332 -2.26558,-11.259306 -6.36458,-21.519435 -12.10676,-30.304199 -3.29997,-5.04852 -5.62193,-7.868178 -13.46055,-16.345686 l -3.64347,-3.94059 v -7.964727 c 0,-4.3806 0.10478,-11.093573 0.23286,-14.917718 l 0.23286,-6.952991 1.09627,0.761385 c 3.74592,2.601634 12.50302,9.304601 14.90921,11.411996 20.80849,18.22449 33.89909,42.946364 37.58259,70.97547 0.77745,5.91594 1.071,18.70431 0.56643,24.67654 -1.64403,19.45943 -8.16361,38.37921 -18.64939,54.12044 -9.68162,14.53403 -23.01514,26.46086 -37.96109,33.95619 -12.29831,6.16756 -24.98134,9.44917 -44.79517,11.59032 -6.17439,0.66723 -20.46673,0.97661 -23.92436,0.51788 z"
       id="path21487"
       transform="matrix(0.26458333,0,0,0.26458333,33.250475,222.16261)" />
    <path
       style="fill:#b5a887;fill-opacity:1;stroke:none;stroke-width:0.354435"
       d="m 75.671879,227.36179 c -18.057846,-3.36015 -32.675837,-14.11522 -39.867606,-29.33227 -1.523032,-3.22258 -3.713499,-9.09909 -3.46679,-9.30059 0.05133,-0.0419 5.354678,-3.19726 11.785223,-7.01187 l 11.691901,-6.93566 0.947513,3.6105 c 1.380357,5.25984 2.678733,8.50027 4.551636,11.35978 9.559016,14.59448 31.793077,16.11249 42.497214,2.90145 1.05099,-1.29714 2.92507,-4.13579 4.16461,-6.30813 l 2.25371,-3.94969 0.0505,-27.13352 c 0.0278,-14.92344 0.1474,-41.40465 0.26583,-58.847143 l 0.21534,-31.713616 7.79757,-4.56067 c 8.19577,-4.793573 16.24026,-9.219409 17.46243,-9.607312 0.65849,-0.208997 0.74169,-0.04457 0.92173,1.821497 0.43329,4.491038 0.64948,91.533334 0.26348,106.077914 -0.42595,16.04931 -0.70051,19.64324 -1.99023,26.05097 -4.70259,23.36391 -18.77558,38.4873 -39.583652,42.53817 -4.265792,0.83045 -16.229825,1.03436 -19.960399,0.34019 z"
       id="path21526"
       transform="matrix(0.26458333,0,0,0.26458333,33.250475,222.16261)" />
    <path
       style="fill:#b5a887;fill-opacity:1;stroke:none;stroke-width:0.354435"
       d="M 26.441183,179.40201 C 26.327286,179.21772 25.047996,176.0551 23.598317,172.37397 19.516282,162.00857 17.463,154.57566 15.88273,144.44344 14.842758,137.77545 14.592978,123.3028 15.396226,116.25469 18.367014,90.187486 30.114531,65.888841 48.725117,47.316987 65.534647,30.542441 85.925022,19.948822 109.16599,15.915529 c 5.47518,-0.950176 21.13824,-1.339499 28.32511,-0.704053 6.79052,0.600402 19.11691,3.269456 23.4224,5.07169 l 1.24053,0.51927 -5.13931,3.357084 c -2.82662,1.846396 -9.68494,6.217232 -15.24071,9.71297 l -10.1014,6.355886 -9.03809,0.226053 c -9.54062,0.238621 -11.75735,0.518304 -18.88877,2.383181 -14.24847,3.725996 -26.79464,11.086745 -38.192559,22.407301 -7.745972,7.693399 -12.84452,14.671873 -17.717255,24.249934 -4.583471,9.009469 -7.270388,16.820285 -8.90056,25.873755 -0.744491,4.13468 -0.82986,5.66277 -0.831633,14.88627 -0.0016,8.49805 0.11317,10.92331 0.662729,14.00019 0.995481,5.57352 2.470266,10.46845 5.260684,17.46063 1.381908,3.46276 2.448222,6.34736 2.369588,6.41022 -0.07863,0.0629 -2.216417,1.2894 -4.750628,2.72564 -5.026496,2.84873 -12.559967,7.27821 -14.055972,8.26454 -0.53691,0.35399 -1.030914,0.47692 -1.148961,0.28592 z"
       id="path21910"
       transform="matrix(0.26458333,0,0,0.26458333,33.250475,222.16261)" />
    <path
       style="fill:#b5a887;fill-opacity:1;stroke:none;stroke-width:0.354435"
       d="m 73.296804,140.26808 c 0.05828,-28.89958 0.220123,-52.658842 0.359644,-52.798363 0.366016,-0.366015 17.248341,-9.905013 21.908877,-12.379144 3.873046,-2.056077 3.948178,-2.079204 4.183761,-1.287837 0.314114,1.055165 0.919254,103.163704 0.613274,103.479644 -0.22966,0.23713 -26.894028,15.53022 -27.077998,15.53033 -0.05144,3e-5 -0.04584,-23.64506 0.01244,-52.54463 z"
       id="path22171"
       transform="matrix(0.26458333,0,0,0.26458333,33.250475,222.16261)" />
    <path
       style="fill:#b5a887;fill-opacity:1;stroke:none;stroke-width:0.354435"
       d="m 114.3053,238.53534 c -1.36458,-0.17208 -5.19248,-0.75013 -8.50644,-1.28457 l -6.025399,-0.9717 2.303829,-0.65969 c 10.93096,-3.13001 16.23698,-6.00401 23.99799,-12.99847 l 3.97241,-3.58006 h 2.30082 c 1.26545,0 3.99923,-0.32776 6.07508,-0.72836 17.09398,-3.2988 38.56825,-13.90419 51.14638,-25.25942 9.85116,-8.89338 18.07637,-22.78446 22.49424,-37.98924 3.0219,-10.40034 3.98634,-18.17237 3.67233,-29.59383 -0.38122,-13.86579 -3.33766,-25.539786 -9.55953,-37.74733 -3.90192,-7.655704 -8.03161,-13.211743 -16.86043,-22.683842 l -4.29474,-4.607655 0.0792,-11.164704 c 0.0436,-6.140587 0.13212,-12.88223 0.19678,-14.98143 l 0.11756,-3.816728 2.16842,1.5129 c 4.78257,3.336782 11.90013,8.928939 15.68506,12.323504 20.94686,18.786506 34.26664,46.276421 36.32191,74.962675 1.0105,14.10396 0.0432,25.25005 -3.35266,38.63342 -7.72955,30.46253 -27.11953,55.42769 -53.21329,68.5136 -12.29831,6.16756 -24.98134,9.44917 -44.79517,11.59032 -6.08233,0.65728 -20.40146,0.97486 -23.92436,0.53061 z"
       id="path22210"
       transform="matrix(0.26458333,0,0,0.26458333,33.250475,222.16261)" />
    <path
       style="fill:#b5a887;fill-opacity:1;stroke:none;stroke-width:0.354435"
       d="m 115.54582,238.66982 c -3.20596,-0.40832 -11.40222,-1.63656 -13.46092,-2.01716 l -2.296223,-0.42451 3.536743,-0.99509 c 9.61085,-2.70411 15.38459,-5.96284 23.4148,-13.21545 l 3.29592,-2.97676 h 2.30659 c 7.55503,0 22.00024,-4.62107 34.9506,-11.18081 15.68827,-7.94657 26.12572,-16.76077 33.76745,-28.51591 6.75577,-10.39229 11.7347,-23.72542 13.96346,-37.3929 0.98805,-6.0591 0.89006,-21.39111 -0.17647,-27.61151 -1.62418,-9.47275 -4.04267,-17.07445 -8.01718,-25.19931 -3.85841,-7.887508 -8.4608,-14.353339 -16.02026,-22.506624 -1.35556,-1.462045 -3.21404,-3.472282 -4.12995,-4.467195 l -1.66529,-1.808932 v -10.09721 c 0,-5.553465 0.10414,-12.268696 0.23142,-14.922734 l 0.23143,-4.825524 2.13715,1.49096 c 16.02492,11.179646 26.53881,21.85369 35.33293,35.871157 14.28464,22.769127 20.05956,52.316532 15.55177,79.570662 -3.2151,19.43849 -11.30708,37.99479 -22.87502,52.45639 -8.36531,10.45784 -20.40238,20.30534 -32.02742,26.20158 -12.80445,6.49442 -25.36963,9.79379 -45.36769,11.91264 -5.01389,0.53124 -20.20874,0.96948 -22.68384,0.65424 z"
       id="path22323"
       transform="matrix(0.26458333,0,0,0.26458333,33.250475,222.16261)" />
    <path
       style="fill:#b5a887;fill-opacity:1;stroke:none;stroke-width:0.354435"
       d="m 113.06477,238.3574 c -3.41558,-0.41754 -12.84359,-1.92624 -13.00656,-2.08135 -0.0383,-0.0365 1.95537,-0.66664 4.43044,-1.40034 5.23058,-1.55054 11.14792,-4.31551 15.02479,-7.02057 1.4999,-1.04654 4.47996,-3.45789 6.62235,-5.35855 l 3.89526,-3.45574 h 2.10349 c 7.32852,0 22.0855,-4.61328 34.24739,-10.70632 20.94461,-10.49312 33.11997,-22.67865 41.2929,-41.32737 10.53438,-24.03701 10.90644,-50.43871 1.04002,-73.800628 -4.2613,-10.089986 -9.02471,-16.908203 -20.60683,-29.496023 l -3.10968,-3.379703 0.0831,-12.000607 c 0.0457,-6.600335 0.1691,-13.310843 0.27421,-14.912241 l 0.19109,-2.911633 3.54435,2.541024 c 14.08019,10.094404 22.5842,18.423963 30.78533,30.153799 11.32364,16.195886 18.24667,36.009031 19.75913,56.549032 1.93613,26.29374 -4.6825,51.86558 -18.9477,73.20658 -12.86304,19.24335 -32.4529,33.68531 -54.2806,40.01654 -15.38245,4.46175 -40.30747,6.97755 -53.34248,5.3841 z"
       id="path22479"
       transform="matrix(0.26458333,0,0,0.26458333,33.250475,222.16261)" />
    <path
       style="fill:#b5a887;fill-opacity:1;stroke:none;stroke-width:0.354435"
       d="m 26.42876,179.02747 c -0.498871,-0.80719 -4.854551,-12.32858 -5.977046,-15.81014 -4.335878,-13.44825 -5.840216,-25.76976 -5.149498,-42.17777 0.775698,-18.42674 7.713535,-38.857035 18.896686,-55.646297 4.65537,-6.989108 8.731996,-11.957202 14.69425,-17.907558 15.987882,-15.95598 34.563031,-26.06722 56.239008,-30.613275 6.21959,-1.304421 11.12306,-1.680836 22.11002,-1.697279 10.54574,-0.01578 13.06303,0.232382 22.50662,2.2188 5.32162,1.119378 11.88054,3.021053 11.86265,3.439424 -0.0116,0.272284 -3.3424,2.433163 -19.63022,12.735408 -8.31134,5.257017 -10.48879,6.484018 -11.51914,6.491067 -7.29336,0.04989 -18.15886,0.768851 -21.3443,1.412329 -13.460078,2.71902 -25.168467,8.197105 -36.104174,16.892308 -3.871068,3.077963 -11.921677,11.12797 -15.004691,15.003564 -7.374772,9.270678 -14.118189,22.402407 -17.27221,33.634879 -2.449809,8.72455 -2.636362,10.39245 -2.620525,23.42916 0.01332,10.96503 0.07557,12.15508 0.813552,15.55247 0.986838,4.54305 2.362769,8.8783 5.063992,15.95548 1.145551,3.00133 2.079978,5.63301 2.076505,5.84817 -0.0035,0.21517 -2.356036,1.73345 -5.227917,3.37396 -2.871881,1.64052 -7.17365,4.15258 -9.559487,5.58236 -2.385837,1.42978 -4.409996,2.5996 -4.498129,2.5996 -0.08813,0 -0.24831,-0.1425 -0.355946,-0.31666 z"
       id="path22518"
       transform="matrix(0.26458333,0,0,0.26458333,33.250475,222.16261)" />
  </g>
</svg>
